<mxfile host="app.diagrams.net" modified="2024-04-03T15:13:23.331Z" agent="Mozilla/5.0 (Windows NT 10.0; Win64; x64) AppleWebKit/537.36 (KHTML, like Gecko) Chrome/122.0.0.0 Safari/537.36 OPR/108.0.0.0" etag="duTaBJzWoy0c_bGPdYnb" version="24.2.1" type="github">
  <diagram name="PÃ¡gina-1" id="JFiHcB_VvqzaN9PdD7ch">
    <mxGraphModel dx="1048" dy="559" grid="1" gridSize="10" guides="1" tooltips="1" connect="1" arrows="1" fold="1" page="1" pageScale="1" pageWidth="827" pageHeight="1169" math="0" shadow="0">
      <root>
        <mxCell id="0" />
        <mxCell id="1" parent="0" />
        <mxCell id="pTaLiJyL9nRCCdv1b4c_-8" value="" style="rounded=0;whiteSpace=wrap;html=1;fillColor=none;" parent="1" vertex="1">
          <mxGeometry x="490" y="165.5" width="237" height="141" as="geometry" />
        </mxCell>
        <mxCell id="pTaLiJyL9nRCCdv1b4c_-1" value="Booster module&lt;br&gt;TPS63020 3.3V" style="rounded=1;whiteSpace=wrap;html=1;fillColor=#DEDEDE;" parent="1" vertex="1">
          <mxGeometry x="613" y="197.5" width="110" height="50" as="geometry" />
        </mxCell>
        <mxCell id="pTaLiJyL9nRCCdv1b4c_-17" style="edgeStyle=orthogonalEdgeStyle;rounded=0;orthogonalLoop=1;jettySize=auto;html=1;strokeColor=none;" parent="1" source="pTaLiJyL9nRCCdv1b4c_-3" target="pTaLiJyL9nRCCdv1b4c_-2" edge="1">
          <mxGeometry relative="1" as="geometry" />
        </mxCell>
        <mxCell id="pTaLiJyL9nRCCdv1b4c_-24" style="edgeStyle=orthogonalEdgeStyle;rounded=0;orthogonalLoop=1;jettySize=auto;html=1;exitX=0.25;exitY=0;exitDx=0;exitDy=0;entryX=1;entryY=0.5;entryDx=0;entryDy=0;startArrow=classic;startFill=1;" parent="1" source="pTaLiJyL9nRCCdv1b4c_-3" target="pTaLiJyL9nRCCdv1b4c_-6" edge="1">
          <mxGeometry relative="1" as="geometry" />
        </mxCell>
        <mxCell id="pTaLiJyL9nRCCdv1b4c_-25" style="edgeStyle=orthogonalEdgeStyle;rounded=0;orthogonalLoop=1;jettySize=auto;html=1;exitX=0.25;exitY=1;exitDx=0;exitDy=0;entryX=1;entryY=0.5;entryDx=0;entryDy=0;startArrow=classic;startFill=1;" parent="1" source="pTaLiJyL9nRCCdv1b4c_-3" target="pTaLiJyL9nRCCdv1b4c_-7" edge="1">
          <mxGeometry relative="1" as="geometry" />
        </mxCell>
        <mxCell id="pTaLiJyL9nRCCdv1b4c_-3" value="Microcontroller&lt;br&gt;ESP32" style="rounded=1;whiteSpace=wrap;html=1;" parent="1" vertex="1">
          <mxGeometry x="364" y="200.5" width="100" height="70" as="geometry" />
        </mxCell>
        <mxCell id="pTaLiJyL9nRCCdv1b4c_-27" style="edgeStyle=orthogonalEdgeStyle;rounded=0;orthogonalLoop=1;jettySize=auto;html=1;" parent="1" source="pTaLiJyL9nRCCdv1b4c_-5" target="pTaLiJyL9nRCCdv1b4c_-3" edge="1">
          <mxGeometry relative="1" as="geometry" />
        </mxCell>
        <mxCell id="pTaLiJyL9nRCCdv1b4c_-5" value="Inercial sensor&lt;br&gt;ADXL345" style="rounded=1;whiteSpace=wrap;html=1;" parent="1" vertex="1">
          <mxGeometry x="207.5" y="210.5" width="110" height="50" as="geometry" />
        </mxCell>
        <mxCell id="pTaLiJyL9nRCCdv1b4c_-6" value="GNSS&amp;nbsp;L80-M39 module" style="rounded=1;whiteSpace=wrap;html=1;" parent="1" vertex="1">
          <mxGeometry x="207.5" y="150.5" width="110" height="50" as="geometry" />
        </mxCell>
        <mxCell id="pTaLiJyL9nRCCdv1b4c_-7" value="LoRa&amp;nbsp;LYLR 998 module" style="rounded=1;whiteSpace=wrap;html=1;" parent="1" vertex="1">
          <mxGeometry x="207.5" y="270.5" width="110" height="50" as="geometry" />
        </mxCell>
        <mxCell id="pTaLiJyL9nRCCdv1b4c_-28" style="edgeStyle=orthogonalEdgeStyle;rounded=0;orthogonalLoop=1;jettySize=auto;html=1;" parent="1" source="pTaLiJyL9nRCCdv1b4c_-2" target="pTaLiJyL9nRCCdv1b4c_-3" edge="1">
          <mxGeometry relative="1" as="geometry" />
        </mxCell>
        <mxCell id="pTaLiJyL9nRCCdv1b4c_-2" value="Temp and hum sensor &lt;br&gt;SHT21" style="rounded=1;whiteSpace=wrap;html=1;" parent="1" vertex="1">
          <mxGeometry x="351" y="120" width="125" height="50" as="geometry" />
        </mxCell>
        <mxCell id="pTaLiJyL9nRCCdv1b4c_-12" value="Charger module&lt;br&gt;TP4056&amp;nbsp;" style="rounded=1;whiteSpace=wrap;html=1;fillColor=#DEDEDE;" parent="1" vertex="1">
          <mxGeometry x="493" y="197.5" width="110" height="50" as="geometry" />
        </mxCell>
        <mxCell id="pTaLiJyL9nRCCdv1b4c_-15" style="edgeStyle=orthogonalEdgeStyle;rounded=0;orthogonalLoop=1;jettySize=auto;html=1;entryX=1;entryY=0.5;entryDx=0;entryDy=0;" parent="1" source="pTaLiJyL9nRCCdv1b4c_-8" target="pTaLiJyL9nRCCdv1b4c_-3" edge="1">
          <mxGeometry relative="1" as="geometry" />
        </mxCell>
        <mxCell id="pTaLiJyL9nRCCdv1b4c_-9" value="Power system" style="text;html=1;align=center;verticalAlign=middle;resizable=0;points=[];autosize=1;strokeColor=none;fillColor=none;" parent="1" vertex="1">
          <mxGeometry x="560" y="164.5" width="100" height="30" as="geometry" />
        </mxCell>
        <mxCell id="pTaLiJyL9nRCCdv1b4c_-11" value="Battery&lt;br&gt;INR18650-35E 4.2V" style="rounded=1;whiteSpace=wrap;html=1;fillColor=#DEDEDE;" parent="1" vertex="1">
          <mxGeometry x="613" y="252.5" width="110" height="50" as="geometry" />
        </mxCell>
        <mxCell id="pTaLiJyL9nRCCdv1b4c_-13" value="Solar panel&lt;br&gt;5.5V" style="rounded=1;whiteSpace=wrap;html=1;fillColor=#DEDEDE;" parent="1" vertex="1">
          <mxGeometry x="493" y="252.5" width="110" height="50" as="geometry" />
        </mxCell>
      </root>
    </mxGraphModel>
  </diagram>
</mxfile>
